<svg xmlns="http://www.w3.org/2000/svg" version="1.1" xmlns:xlink="http://www.w3.org/1999/xlink" xmlns:svgjs="http://svgjs.com/svgjs" width="261.39" height="261.39"><svg id="SvgjsSvg1001" xmlns="http://www.w3.org/2000/svg" viewBox="0 0 261.39 261.39">
  <defs>
    <style>
      .cls-1 {
        fill: #a166ff;
      }
    </style>
  </defs>
  <g id="SvgjsG1000" data-name="Layer_1">
    <path class="cls-1" d="M147.63,89.98h.02v.02l11.75,11.75c6.77,6.77,17.74,6.77,24.51,0l31.18-31.18c1.55-1.55,1.55-4.07,0-5.62l-18.38-18.38c-1.55-1.55-4.07-1.55-5.62,0l-33.79,33.79c-3.53,3.53-9.53,1.07-9.62-3.88v-12.99.08V3.97c0-2.19-1.78-3.97-3.97-3.97h-26c-2.19,0-3.97,1.78-3.97,3.97v44.94c0,4.6,1.83,9,5.08,12.25l28.82,28.82Z"></path>
    <path class="cls-1" d="M113.76,171.4h-.02v-.02l-11.75-11.74c-6.77-6.77-17.74-6.77-24.51,0l-31.18,31.18c-1.55,1.55-1.55,4.07,0,5.62l18.38,18.38c1.55,1.55,4.07,1.55,5.62,0l33.79-33.79c3.53-3.53,9.53-1.07,9.62,3.88v72.52c0,2.19,1.78,3.97,3.97,3.97h26c2.19,0,3.97-1.78,3.97-3.97v-44.93c0-4.6-1.83-9-5.08-12.25l-28.82-28.84Z"></path>
    <path class="cls-1" d="M171.41,147.33v.02h-.02l-11.75,11.75c-6.77,6.77-6.77,17.74,0,24.51l31.18,31.18c1.55,1.55,4.07,1.55,5.62,0l18.38-18.38c1.55-1.55,1.55-4.07,0-5.62l-33.79-33.79c-3.53-3.53-1.07-9.53,3.88-9.62h12.99-.08,59.6c2.19,0,3.97-1.78,3.97-3.97v-26c0-2.19-1.78-3.97-3.97-3.97h-44.92c-4.6,0-9,1.83-12.25,5.08l-28.83,28.82Z"></path>
    <path class="cls-1" d="M89.98,114.01v-.02h.02l11.75-11.75c6.77-6.77,6.77-17.74,0-24.51l-31.18-31.18c-1.55-1.55-4.07-1.55-5.62,0l-18.38,18.38c-1.55,1.55-1.55,4.07,0,5.62l33.79,33.79c3.53,3.53,1.07,9.53-3.88,9.62H3.97c-2.19,0-3.97,1.78-3.97,3.97v26c0,2.19,1.78,3.97,3.97,3.97h44.94c4.6,0,9-1.83,12.25-5.08l28.82-28.82Z"></path>
  </g>
</svg><style>@media (prefers-color-scheme: light) { :root { filter: none; } }
</style></svg>