<?xml version="1.0" encoding="UTF-8"?>
<svg id="Layer_2" xmlns="http://www.w3.org/2000/svg" viewBox="0 0 1159.92 267.74">
  <defs>
    <style>
      .cls-1 {
        font-family: Satoshi-Medium, Satoshi;
        font-size: 227.14px;
        font-weight: 500;
        stroke: #fff;
        stroke-miterlimit: 10;
        stroke-width: 4px;
      }

      .cls-1, .cls-2 {
        fill: #fff;
      }

      .cls-3 {
        letter-spacing: 0em;
      }

      .cls-4 {
        letter-spacing: 0em;
      }

      .cls-5 {
        letter-spacing: .03em;
      }

      .cls-6 {
        letter-spacing: .02em;
      }

      .cls-7 {
        letter-spacing: .02em;
      }

      .cls-8 {
        letter-spacing: .01em;
      }
    </style>
  </defs>
  <g id="Layer_1-2" data-name="Layer_1">
    <g id="Keygate_1">
      <text class="cls-1" transform="translate(307.95 212.82)"><tspan class="cls-4" x="0" y="0">K</tspan><tspan class="cls-8" x="144.01" y="0">e</tspan><tspan class="cls-3" x="269.62" y="0">y</tspan><tspan class="cls-5" x="383.42" y="0">g</tspan><tspan class="cls-7" x="524.92" y="0">a</tspan><tspan class="cls-6" x="650.08" y="0">t</tspan><tspan class="cls-5" x="726.85" y="0">e</tspan></text>
      <path class="cls-2" d="M147.63,89.98h.02v.02l11.75,11.75c6.77,6.77,17.74,6.77,24.51,0l31.18-31.18c1.55-1.55,1.55-4.07,0-5.62l-18.38-18.38c-1.55-1.55-4.07-1.55-5.62,0l-33.79,33.79c-3.53,3.53-9.53,1.07-9.62-3.88v-12.99.08V3.97c0-2.19-1.78-3.97-3.97-3.97h-26c-2.19,0-3.97,1.78-3.97,3.97v44.94c0,4.6,1.83,9,5.08,12.25l28.82,28.82Z"/>
      <path class="cls-2" d="M113.76,171.4h-.02v-.02l-11.75-11.74c-6.77-6.77-17.74-6.77-24.51,0l-31.18,31.18c-1.55,1.55-1.55,4.07,0,5.62l18.38,18.38c1.55,1.55,4.07,1.55,5.62,0l33.79-33.79c3.53-3.53,9.53-1.07,9.62,3.88v72.52c0,2.19,1.78,3.97,3.97,3.97h26c2.19,0,3.97-1.78,3.97-3.97v-44.93c0-4.6-1.83-9-5.08-12.25l-28.82-28.84Z"/>
      <path class="cls-2" d="M171.41,147.33v.02h-.02l-11.75,11.75c-6.77,6.77-6.77,17.74,0,24.51l31.18,31.18c1.55,1.55,4.07,1.55,5.62,0l18.38-18.38c1.55-1.55,1.55-4.07,0-5.62l-33.79-33.79c-3.53-3.53-1.07-9.53,3.88-9.62h12.99-.08,59.6c2.19,0,3.97-1.78,3.97-3.97v-26c0-2.19-1.78-3.97-3.97-3.97h-44.92c-4.6,0-9,1.83-12.25,5.08l-28.83,28.82Z"/>
      <path class="cls-2" d="M89.98,114.01v-.02h.02l11.75-11.75c6.77-6.77,6.77-17.74,0-24.51l-31.18-31.18c-1.55-1.55-4.07-1.55-5.62,0l-18.38,18.38c-1.55,1.55-1.55,4.07,0,5.62l33.79,33.79c3.53,3.53,1.07,9.53-3.88,9.62H3.97c-2.19,0-3.97,1.78-3.97,3.97v26c0,2.19,1.78,3.97,3.97,3.97h44.94c4.6,0,9-1.83,12.25-5.08l28.82-28.82Z"/>
    </g>
  </g>
</svg>